<svg xmlns="http://www.w3.org/2000/svg" viewBox="0 0 500 500"><g id="freepik--background-complete--inject-7"><rect y="382.4" width="500" height="0.25" style="fill:#ebebeb"></rect><rect x="52.46" y="391.92" width="33.12" height="0.25" style="fill:#ebebeb"></rect><rect x="171.14" y="389.21" width="55.42" height="0.25" style="fill:#ebebeb"></rect><rect x="91" y="397.86" width="19.19" height="0.25" style="fill:#ebebeb"></rect><rect x="385.46" y="391.8" width="43.19" height="0.25" style="fill:#ebebeb"></rect><rect x="437.56" y="391.8" width="6.33" height="0.25" style="fill:#ebebeb"></rect><rect x="277.21" y="395.31" width="46.84" height="0.25" style="fill:#ebebeb"></rect><path d="M237,337.8H43.91a5.71,5.71,0,0,1-5.7-5.71V60.66A5.71,5.71,0,0,1,43.91,55H237a5.71,5.71,0,0,1,5.71,5.71V332.09A5.71,5.71,0,0,1,237,337.8ZM43.91,55.2a5.46,5.46,0,0,0-5.45,5.46V332.09a5.46,5.46,0,0,0,5.45,5.46H237a5.47,5.47,0,0,0,5.46-5.46V60.66A5.47,5.47,0,0,0,237,55.2Z" style="fill:#ebebeb"></path><path d="M453.31,337.8H260.21a5.72,5.72,0,0,1-5.71-5.71V60.66A5.72,5.72,0,0,1,260.21,55h193.1A5.71,5.71,0,0,1,459,60.66V332.09A5.71,5.71,0,0,1,453.31,337.8ZM260.21,55.2a5.47,5.47,0,0,0-5.46,5.46V332.09a5.47,5.47,0,0,0,5.46,5.46h193.1a5.47,5.47,0,0,0,5.46-5.46V60.66a5.47,5.47,0,0,0-5.46-5.46Z" style="fill:#ebebeb"></path><rect x="59.25" y="85.06" width="168.04" height="297.34" style="fill:#f0f0f0"></rect><rect x="59.25" y="69.56" width="168.04" height="4.59" style="fill:#f5f5f5"></rect><rect x="59.25" y="69.56" width="168.04" height="4.59" style="fill:#f5f5f5"></rect><rect x="274.72" y="69.56" width="168.04" height="4.59" style="fill:#f5f5f5"></rect><rect x="43.44" y="121.56" width="152.4" height="9.44" style="fill:#fafafa"></rect><rect x="195.85" y="121.56" width="31.45" height="9.44" transform="translate(423.14 252.56) rotate(180)" style="fill:#e0e0e0"></rect><rect x="43.44" y="201.56" width="152.4" height="9.44" style="fill:#fafafa"></rect><rect x="195.85" y="201.56" width="31.45" height="9.44" transform="translate(423.14 412.56) rotate(180)" style="fill:#e0e0e0"></rect><rect x="43.44" y="281.56" width="152.4" height="9.44" style="fill:#fafafa"></rect><rect x="195.85" y="281.56" width="31.45" height="9.44" transform="translate(423.14 572.56) rotate(180)" style="fill:#e0e0e0"></rect><rect x="73.47" y="167.56" width="32.42" height="34.01" rx="3.38" style="fill:#fff"></rect><rect x="73.47" y="171.77" width="18.33" height="25.46" style="fill:#f0f0f0"></rect><rect x="80.99" y="162.93" width="17.37" height="4.62" rx="1.05" style="fill:#e0e0e0"></rect><rect x="117.61" y="167.56" width="32.42" height="34.01" rx="3.38" style="fill:#fff"></rect><rect x="117.61" y="171.77" width="18.33" height="25.46" style="fill:#f0f0f0"></rect><rect x="125.13" y="162.93" width="17.37" height="4.62" rx="1.05" style="fill:#e0e0e0"></rect><rect x="161.75" y="167.56" width="32.42" height="34.01" rx="3.38" style="fill:#fff"></rect><rect x="161.75" y="171.77" width="18.33" height="25.46" style="fill:#f0f0f0"></rect><rect x="169.27" y="162.93" width="17.37" height="4.62" rx="1.05" style="fill:#e0e0e0"></rect><rect x="73.37" y="103.39" width="15.31" height="18.17" style="fill:#e0e0e0"></rect><rect x="76.62" y="107.92" width="12.6" height="9.12" style="fill:#f5f5f5"></rect><rect x="71.65" y="99.54" width="18.75" height="5.26" rx="1.23" style="fill:#fafafa"></rect><rect x="102.66" y="103.39" width="15.31" height="18.17" style="fill:#e0e0e0"></rect><rect x="105.91" y="107.92" width="12.6" height="9.12" style="fill:#f5f5f5"></rect><rect x="100.94" y="99.54" width="18.75" height="5.26" rx="1.23" style="fill:#fafafa"></rect><rect x="131.95" y="103.39" width="15.31" height="18.17" style="fill:#e0e0e0"></rect><rect x="135.2" y="107.92" width="12.6" height="9.12" style="fill:#f5f5f5"></rect><rect x="130.23" y="99.54" width="18.75" height="5.26" rx="1.23" style="fill:#fafafa"></rect><rect x="161.23" y="103.39" width="15.31" height="18.17" style="fill:#e0e0e0"></rect><rect x="164.48" y="107.92" width="12.6" height="9.12" style="fill:#f5f5f5"></rect><rect x="159.51" y="99.54" width="18.75" height="5.26" rx="1.23" style="fill:#fafafa"></rect><rect x="70.17" y="252.38" width="18.83" height="29.18" style="fill:#fafafa"></rect><rect x="70.17" y="259.44" width="14.17" height="15.06" style="fill:#e6e6e6"></rect><rect x="89" y="252.38" width="8.17" height="29.18" transform="translate(186.17 533.94) rotate(180)" style="fill:#e6e6e6"></rect><rect x="100.17" y="252.38" width="18.83" height="29.18" style="fill:#fafafa"></rect><rect x="100.17" y="259.44" width="14.17" height="15.06" style="fill:#e6e6e6"></rect><rect x="119" y="252.38" width="8.17" height="29.18" transform="translate(246.17 533.94) rotate(180)" style="fill:#e6e6e6"></rect><rect x="130.17" y="252.38" width="18.83" height="29.18" style="fill:#fafafa"></rect><rect x="130.17" y="259.44" width="14.17" height="15.06" style="fill:#e6e6e6"></rect><rect x="149" y="252.38" width="8.17" height="29.18" transform="translate(306.17 533.94) rotate(180)" style="fill:#e6e6e6"></rect><rect x="160.17" y="252.38" width="18.83" height="29.18" style="fill:#fafafa"></rect><rect x="160.17" y="259.44" width="14.17" height="15.06" style="fill:#e6e6e6"></rect><rect x="179" y="252.38" width="8.17" height="29.18" transform="translate(366.17 533.94) rotate(180)" style="fill:#e6e6e6"></rect><rect x="274.72" y="85.06" width="168.04" height="297.34" style="fill:#f0f0f0"></rect><rect x="258.91" y="121.56" width="152.4" height="9.44" style="fill:#fafafa"></rect><rect x="411.31" y="121.56" width="31.45" height="9.44" transform="translate(854.07 252.56) rotate(180)" style="fill:#e0e0e0"></rect><rect x="258.91" y="201.56" width="152.4" height="9.44" style="fill:#fafafa"></rect><rect x="411.31" y="201.56" width="31.45" height="9.44" transform="translate(854.07 412.56) rotate(180)" style="fill:#e0e0e0"></rect><rect x="258.91" y="281.56" width="152.4" height="9.44" style="fill:#fafafa"></rect><rect x="411.31" y="281.56" width="31.45" height="9.44" transform="translate(854.07 572.56) rotate(180)" style="fill:#e0e0e0"></rect><rect x="283.74" y="263.42" width="36.65" height="18.14" rx="3.82" style="fill:#fff"></rect><rect x="283.74" y="268.18" width="20.72" height="8.48" style="fill:#f0f0f0"></rect><rect x="292.24" y="258.19" width="19.64" height="5.23" rx="1.19" style="fill:#e0e0e0"></rect><rect x="333.64" y="263.42" width="36.65" height="18.14" rx="3.82" style="fill:#fff"></rect><rect x="333.64" y="268.18" width="20.72" height="8.48" style="fill:#f0f0f0"></rect><rect x="342.15" y="258.19" width="19.64" height="5.23" rx="1.19" style="fill:#e0e0e0"></rect><rect x="383.55" y="263.42" width="36.65" height="18.14" rx="3.82" style="fill:#fff"></rect><rect x="383.55" y="268.18" width="20.72" height="8.48" style="fill:#f0f0f0"></rect><rect x="392.05" y="258.19" width="19.64" height="5.23" rx="1.19" style="fill:#e0e0e0"></rect><rect x="292.32" y="179.92" width="19.67" height="21.64" style="fill:#e0e0e0"></rect><rect x="296.49" y="185.31" width="16.18" height="10.86" style="fill:#f5f5f5"></rect><rect x="290.11" y="178.25" width="24.08" height="2.67" rx="0.99" style="fill:#fafafa"></rect><rect x="329.93" y="179.92" width="19.67" height="21.64" style="fill:#e0e0e0"></rect><rect x="334.11" y="185.31" width="16.18" height="10.86" style="fill:#f5f5f5"></rect><rect x="327.72" y="178.25" width="24.08" height="2.67" rx="0.99" style="fill:#fafafa"></rect><rect x="367.55" y="179.92" width="19.67" height="21.64" style="fill:#e0e0e0"></rect><rect x="371.72" y="185.31" width="16.18" height="10.86" style="fill:#f5f5f5"></rect><rect x="365.34" y="178.25" width="24.08" height="2.67" rx="0.99" style="fill:#fafafa"></rect><rect x="405.16" y="179.92" width="19.67" height="21.64" style="fill:#e0e0e0"></rect><rect x="409.33" y="185.31" width="16.18" height="10.86" style="fill:#f5f5f5"></rect><rect x="402.95" y="178.25" width="24.08" height="2.67" rx="0.99" style="fill:#fafafa"></rect><rect x="298.26" y="100.68" width="17.21" height="20.88" style="fill:#fafafa"></rect><rect x="298.26" y="105.74" width="12.94" height="10.77" style="fill:#e6e6e6"></rect><rect x="315.47" y="100.68" width="7.46" height="20.88" transform="translate(638.4 222.24) rotate(180)" style="fill:#e6e6e6"></rect><rect x="325.67" y="100.68" width="17.21" height="20.88" style="fill:#fafafa"></rect><rect x="325.67" y="105.74" width="12.94" height="10.77" style="fill:#e6e6e6"></rect><rect x="342.88" y="100.68" width="7.46" height="20.88" transform="translate(693.22 222.24) rotate(180)" style="fill:#e6e6e6"></rect><rect x="353.08" y="100.68" width="17.21" height="20.88" style="fill:#fafafa"></rect><rect x="353.08" y="105.74" width="12.94" height="10.77" style="fill:#e6e6e6"></rect><rect x="370.29" y="100.68" width="7.46" height="20.88" transform="translate(748.04 222.24) rotate(180)" style="fill:#e6e6e6"></rect><rect x="380.49" y="100.68" width="17.21" height="20.88" style="fill:#fafafa"></rect><rect x="380.49" y="105.74" width="12.94" height="10.77" style="fill:#e6e6e6"></rect><rect x="397.7" y="100.68" width="7.46" height="20.88" transform="translate(802.86 222.24) rotate(180)" style="fill:#e6e6e6"></rect></g><g id="freepik--Shadow--inject-7"><ellipse id="freepik--path--inject-7" cx="250" cy="416.24" rx="193.89" ry="11.32" style="fill:#f5f5f5"></ellipse></g><g id="freepik--Counter--inject-7"><rect x="105.89" y="246.36" width="296.69" height="12.05" style="fill:#0FBE41"></rect><rect x="105.89" y="246.36" width="296.69" height="12.05" style="fill:#fff;opacity:0.6000000000000001"></rect><rect x="376.61" y="246.36" width="25.97" height="12.05" style="fill:#0FBE41;opacity:0.30000000000000004"></rect><rect x="111.17" y="258.41" width="286.12" height="156.59" style="fill:#0FBE41"></rect><rect x="111.17" y="258.41" width="286.12" height="156.59" style="fill:#fff;opacity:0.5"></rect><rect x="381.9" y="258.41" width="15.4" height="156.59" style="fill:#0FBE41;opacity:0.30000000000000004"></rect><rect x="111.17" y="258.41" width="286.12" height="3.97" style="fill:#0FBE41;opacity:0.30000000000000004"></rect><circle cx="246.95" cy="332.7" r="42.14" style="fill:#0FBE41;opacity:0.30000000000000004"></circle><circle cx="244.24" cy="332.7" r="42.14" style="fill:#0FBE41"></circle><circle cx="242.88" cy="332.7" r="42.14" style="fill:#fff"></circle><rect x="235.73" y="307.5" width="14.3" height="50.4" rx="2.85" style="fill:#0FBE41"></rect><rect x="235.73" y="307.5" width="14.3" height="50.4" rx="2.85" transform="translate(575.58 89.81) rotate(90)" style="fill:#0FBE41"></rect><polygon points="384.37 239.69 307.33 239.69 317.3 191.67 394.33 191.67 384.37 239.69" style="fill:#0FBE41"></polygon><polygon points="384.37 239.69 307.33 239.69 317.3 191.67 394.33 191.67 384.37 239.69" style="fill:#fff;opacity:0.30000000000000004"></polygon><polygon points="366.88 227.75 334.55 227.75 338.84 207.08 371.17 207.08 366.88 227.75" style="fill:#fff;opacity:0.30000000000000004"></polygon><polygon points="332.62 227.75 334.55 227.75 338.84 207.08 336.91 207.08 332.62 227.75" style="fill:#0FBE41;opacity:0.30000000000000004"></polygon><polygon points="351.79 218.35 345.99 218.35 346.86 239.69 352.65 239.69 351.79 218.35" style="fill:#0FBE41;opacity:0.30000000000000004"></polygon><polygon points="308.63 239.69 307.33 239.69 317.3 191.67 318.6 191.67 308.63 239.69" style="fill:#fff;opacity:0.7000000000000001"></polygon><polygon points="351.79 246.35 365.71 246.35 360.75 217.41 346.83 217.41 351.79 246.35" style="fill:#0FBE41"></polygon><polygon points="351.79 246.35 365.71 246.35 360.75 217.41 346.83 217.41 351.79 246.35" style="fill:#fff;opacity:0.2"></polygon><polygon points="350.54 246.35 351.79 246.35 346.83 217.41 345.58 217.41 350.54 246.35" style="fill:#0FBE41"></polygon><polygon points="350.54 246.35 351.79 246.35 346.83 217.41 345.58 217.41 350.54 246.35" style="fill:#fff;opacity:0"></polygon><polygon points="351.12 244.71 340.26 244.71 337.42 246.35 351.12 246.35 351.12 244.71" style="fill:#0FBE41"></polygon><rect x="190.23" y="226.14" width="18.42" height="20.21" style="fill:#0FBE41"></rect><polygon points="197.67 226.14 208.65 226.14 211.9 221.22 200.92 221.22 197.67 226.14" style="fill:#0FBE41"></polygon><rect x="190.23" y="226.14" width="10.98" height="20.21" transform="translate(391.45 472.5) rotate(180)" style="fill:#fff;opacity:0.30000000000000004"></rect><rect x="194.17" y="233.28" width="14.48" height="8.99" style="fill:#fff;opacity:0.30000000000000004"></rect><polygon points="201.21 226.14 190.23 226.14 186.98 221.22 197.96 221.22 201.21 226.14" style="fill:#0FBE41"></polygon><polygon points="201.21 226.14 190.23 226.14 186.98 221.22 197.96 221.22 201.21 226.14" style="fill:#fff;opacity:0.30000000000000004"></polygon></g></svg>